<svg xmlns="http://www.w3.org/2000/svg" width="191.817" height="168.791" viewBox="0 0 191.817 168.791"><defs><style>.a{fill:#b9f6c9;}.b{fill:#fff;}</style></defs><g transform="translate(-1069.477 -1426.035)"><g transform="translate(1066.814 1425.903) rotate(-8)"><circle class="a" cx="3.165" cy="3.165" r="3.165" transform="translate(20.065 60.042)"/><circle class="a" cx="3.165" cy="3.165" r="3.165" transform="translate(53.305 60.042)"/><path class="a" d="M79.7,61.864a9.346,9.346,0,0,0-7.686-9.185V51.3a32.164,32.164,0,0,0-64.329,0v1.383A9.331,9.331,0,0,0,7.8,71.069c.622,7.087,3.864,12.321,9.666,15.579,5.16,2.9,12.482,4.305,22.385,4.305s17.225-1.408,22.385-4.305c5.8-3.257,9.045-8.492,9.666-15.579A9.347,9.347,0,0,0,79.7,61.864Zm-76.405,0a6.048,6.048,0,0,1,4.391-5.808V67.672A6.048,6.048,0,0,1,3.295,61.864Zm65.425,6.612c0,7.235-2.649,12.239-8.1,15.3-4.654,2.613-11.449,3.883-20.772,3.883h0c-9.323,0-16.118-1.27-20.772-3.883-5.449-3.059-8.1-8.063-8.1-15.3V51.3A28.92,28.92,0,0,1,31.556,23.643c.562.007,8.971-1.065,8.688-1.211A28.9,28.9,0,0,1,68.719,51.3v17.18Zm3.295-.8V56.056a6.037,6.037,0,0,1,0,11.616Z"/><path class="a" d="M156.727,265.915H135.411a1.647,1.647,0,0,0-1.647,1.647,12.305,12.305,0,1,0,24.61,0A1.647,1.647,0,0,0,156.727,265.915Zm-10.658,10.658a9.025,9.025,0,0,1-8.859-7.363h5.8c0,.486,3.295.757,3.295,0h8.626A9.026,9.026,0,0,1,146.069,276.573Z" transform="translate(-106.219 -195.965)"/></g><g transform="matrix(0.978, 0.208, -0.208, 0.978, 1186.78, 1477.425)"><path class="a" d="M72.705,65.632A32.681,32.681,0,0,0,70.486,60.4V60.18a29.133,29.133,0,0,0-58.266,0V60.4A32.74,32.74,0,0,0,10,65.634a10.216,10.216,0,0,0,.216,20.43h.041a22.823,22.823,0,0,0,8.01,10.1c5.723,4.1,13.706,6.27,23.084,6.27s17.362-2.168,23.086-6.27a22.821,22.821,0,0,0,8.011-10.1l.11,0a10.216,10.216,0,0,0,.146-20.432Zm-5.927-6.851H53.895a55.268,55.268,0,0,0-3.253-18.574A24.167,24.167,0,0,0,48.353,35.7,25.517,25.517,0,0,1,66.778,58.781ZM41.354,34.717c2,0,4.192,2.554,5.872,6.831a51.476,51.476,0,0,1,3,17.233H32.483a51.477,51.477,0,0,1,3-17.233c1.68-4.277,3.875-6.831,5.872-6.831ZM30.634,62.451H55.267a20.712,20.712,0,0,1-13.914,5.162,20.715,20.715,0,0,1-13.912-5.162h3.193ZM34.354,35.7a24.167,24.167,0,0,0-2.288,4.509,55.263,55.263,0,0,0-3.253,18.574H15.929A25.518,25.518,0,0,1,34.354,35.7ZM3.67,75.846a6.558,6.558,0,0,1,5.349-6.436,33.052,33.052,0,0,0-.636,6.435,28.992,28.992,0,0,0,.7,6.448A6.557,6.557,0,0,1,3.67,75.846ZM62.3,93.177c-5.1,3.652-12.34,5.583-20.948,5.583s-15.85-1.93-20.946-5.583c-5.543-3.972-8.353-9.8-8.353-17.331a29.345,29.345,0,0,1,3.235-13.394h7.2c4.15,5.47,11.277,8.832,18.861,8.832s14.714-3.362,18.862-8.832h7.2a29.323,29.323,0,0,1,3.235,13.394C70.654,83.374,67.844,89.2,62.3,93.177Zm11.322-10.87a28.993,28.993,0,0,0,.7-6.461,33.074,33.074,0,0,0-.638-6.448,6.546,6.546,0,0,1-.063,12.908Z"/><path class="a" d="M200.315,337.88a4.548,4.548,0,0,1-6.437,0,1.835,1.835,0,1,0-2.6,2.6,8.218,8.218,0,0,0,11.628,0,1.835,1.835,0,1,0-2.6-2.595Z" transform="translate(-155.743 -250.09)"/><path class="a" d="M121.691,256.047a1.835,1.835,0,0,0-1.835,1.835v5.689a1.835,1.835,0,1,0,3.67,0v-5.689A1.835,1.835,0,0,0,121.691,256.047Z" transform="translate(-97.862 -183.712)"/><path class="a" d="M312.691,256.047a1.835,1.835,0,0,0-1.835,1.835v5.689a1.835,1.835,0,0,0,3.67,0v-5.689A1.835,1.835,0,0,0,312.691,256.047Z" transform="translate(-253.813 -183.712)"/></g><rect class="b" width="10" height="36" transform="translate(1107.769 1431.028) rotate(49)"/><rect class="b" width="7" height="6" transform="translate(1108 1438)"/><g transform="matrix(0.766, -0.643, 0.643, 0.766, 1075.639, 1450.883)"><path class="a" d="M19.792,15.306a5.667,5.667,0,1,1,5.667-5.667A5.672,5.672,0,0,1,19.792,15.306Zm0-8.948a3.281,3.281,0,1,0,3.281,3.281A3.285,3.285,0,0,0,19.792,6.358Z" transform="translate(-0.462 1.082)"/><path class="a" d="M30.855,23.3a5.681,5.681,0,0,1-2.081-.4L16.756,18.157a1.192,1.192,0,0,1,.876-2.217L29.65,20.683a3.284,3.284,0,0,0,4.486-3.054V7.52A3.279,3.279,0,0,0,29.65,4.468L17.631,9.209a1.192,1.192,0,0,1-.876-2.217L28.774,2.251a5.665,5.665,0,0,1,7.748,5.271v10.11A5.66,5.66,0,0,1,30.855,23.3Z" transform="translate(2.137 -1.853)"/><path class="a" d="M14.066,23.3A5.666,5.666,0,0,1,8.4,17.631V7.521a5.667,5.667,0,0,1,7.75-5.271L28.165,6.991a1.192,1.192,0,0,1-.876,2.217L15.273,4.469a3.282,3.282,0,0,0-4.488,3.052v10.11a3.283,3.283,0,0,0,4.488,3.054l12.016-4.743a1.192,1.192,0,0,1,.876,2.217L16.149,22.9A5.635,5.635,0,0,1,14.066,23.3Z" transform="translate(-8.399 -1.854)"/></g></g></svg>