<svg xmlns="http://www.w3.org/2000/svg" width="148.809" height="211.802" viewBox="0 0 148.809 211.802"><defs><style>.a{fill:#b9f6c9;}</style></defs><g transform="translate(-220.619 -1868.337)"><g transform="translate(237.754 1868.218) rotate(14)"><g transform="translate(0.49 0)"><path class="a" d="M67.381,27.717l4.394-9.667a3.66,3.66,0,0,0-1.131-4.417L58.278,4.356a6.034,6.034,0,0,0-1.7-.894L47.425.192a3.573,3.573,0,0,0-2.8.21,23.552,23.552,0,0,1-8.282,2.025A23.455,23.455,0,0,1,27.961.4,3.589,3.589,0,0,0,25.139.2L16.032,3.453a6.042,6.042,0,0,0-1.723.9L1.942,13.631A3.662,3.662,0,0,0,.811,18.05l4.394,9.667A3.659,3.659,0,0,0,9.519,29.71l4.55-1.31a66.972,66.972,0,0,0-.84,18.871L9.83,65.637a2.436,2.436,0,0,0,1.76,2.79l16.072,4.286a2.44,2.44,0,0,0,2.9-1.5l5.734-16.555,5.753,16.606a2.427,2.427,0,0,0,2.878,1.445L61,68.428a2.437,2.437,0,0,0,1.762-2.79l-3.4-18.368a66.921,66.921,0,0,0-.838-18.86l4.547,1.3a3.663,3.663,0,0,0,4.311-1.992ZM36.344,4.853a26.619,26.619,0,0,0,8.735-1.97c.262,1.859.409,5.249-1.416,7.629-1.439,1.881-3.92,2.834-7.371,2.834s-5.932-.954-7.373-2.835C27.1,8.13,27.242,4.74,27.5,2.88a26.53,26.53,0,0,0,8.84,1.973ZM8.852,27.377a1.213,1.213,0,0,1-1.434-.665l-4.4-9.667A1.223,1.223,0,0,1,3.4,15.572l11.32-8.493c1.764,4.386,3.993,12.575-.383,18.935a2.408,2.408,0,0,0-.928.063Zm3.363,38.7.54-2.912,16.4,4.689-.871,2.511ZM44.32,70.422l-.888-2.565,16.4-4.689.54,2.912Zm15.069-9.65L42.636,65.561l-4.05-11.692a2.427,2.427,0,0,0-4.586,0L29.953,65.561,13.2,60.772l2.45-13.234a1.2,1.2,0,0,0,.013-.354,64.516,64.516,0,0,1,.791-18.335,2.382,2.382,0,0,0-.167-1.4c5.229-7.506,2.476-16.986.513-21.694l.027-.011L25.063,2.8c-.3,2.293-.346,6.2,1.922,9.173,1.924,2.519,5.062,3.8,9.308,3.8s7.384-1.278,9.308-3.8C47.869,9.007,47.819,5.1,47.524,2.8l8.264,2.952c-1.963,4.714-4.717,14.2.512,21.7a2.382,2.382,0,0,0-.167,1.4,64.516,64.516,0,0,1,.791,18.335,1.2,1.2,0,0,0,.013.354Zm4.345-33.395-4.547-1.3a2.441,2.441,0,0,0-.929-.063c-4.381-6.36-2.151-14.549-.387-18.932l11.32,8.493a1.222,1.222,0,0,1,.377,1.472l-4.4,9.666a1.225,1.225,0,0,1-1.435.664Z" transform="translate(-0.49 0)"/><path class="a" d="M41.052,17a6.043,6.043,0,0,0-5.178,2.945,10.862,10.862,0,0,0-6.629,0,6.054,6.054,0,1,0-7.463,8.728,10.919,10.919,0,1,0,21.555,0A6.058,6.058,0,0,0,41.052,17ZM20.427,23.066a3.631,3.631,0,0,1,6.592-2.112A10.959,10.959,0,0,0,22.426,26.3a3.624,3.624,0,0,1-2-3.235ZM32.559,38.839a8.493,8.493,0,1,1,8.493-8.493A8.493,8.493,0,0,1,32.559,38.839ZM42.692,26.3A10.959,10.959,0,0,0,38.1,20.954,3.631,3.631,0,1,1,42.692,26.3Z" transform="translate(3.244 3.625)"/><circle class="a" cx="1.213" cy="1.213" r="1.213" transform="translate(30.95 29.118)"/><circle class="a" cx="1.213" cy="1.213" r="1.213" transform="translate(38.23 29.118)"/><path class="a" d="M30.64,27a3.64,3.64,0,1,0,3.64,3.64A3.64,3.64,0,0,0,30.64,27Zm0,4.853a1.213,1.213,0,1,1,1.213-1.213A1.213,1.213,0,0,1,30.64,31.853Z" transform="translate(5.163 5.758)"/></g></g><g transform="translate(272.221 2012.71) rotate(-19)"><g transform="translate(0 16.934)"><path class="a" d="M39.126,62.593c-14.572,0-27.35-9.573-30.768-22.895a8.517,8.517,0,0,1,.159-17.033h.73A30.487,30.487,0,0,1,20.379,8.426a1.185,1.185,0,0,1,1.356,1.944A28,28,0,0,0,11.209,24.23a1.185,1.185,0,0,1-1.124.806H8.518a6.146,6.146,0,0,0,0,12.293H9.3a1.185,1.185,0,0,1,1.157.932c2.812,12.724,14.87,21.963,28.674,21.963S64.99,50.986,67.8,38.261a1.189,1.189,0,0,1,1.157-.932h.778a6.146,6.146,0,0,0,0-12.293h-1.57a1.186,1.186,0,0,1-1.124-.809A27.628,27.628,0,0,0,56.6,10.429a1.185,1.185,0,0,1,1.361-1.94A30.024,30.024,0,0,1,69,22.668h.733A8.517,8.517,0,0,1,69.9,39.7C66.479,53.02,53.7,62.593,39.126,62.593Z" transform="translate(0 -8.213)"/><g transform="translate(46.198 24.679)"><circle class="a" cx="2.865" cy="2.865" r="2.865"/></g><g transform="translate(27.419 24.679)"><circle class="a" cx="2.865" cy="2.865" r="2.865"/></g><path class="a" d="M21.942,29.182a15.957,15.957,0,0,1-8.38-2.388l-.462-.282a1.187,1.187,0,0,1,1.238-2.025l.465.285a13.545,13.545,0,0,0,14.28,0l.462-.287a1.186,1.186,0,1,1,1.245,2.018l-.465.287A15.958,15.958,0,0,1,21.942,29.182Z" transform="translate(17.185 13.862)"/></g><g transform="translate(19.916 1.854)"><path class="a" d="M19.757,15.236A5.632,5.632,0,1,1,25.389,9.6,5.637,5.637,0,0,1,19.757,15.236Zm0-8.892A3.261,3.261,0,1,0,23.017,9.6,3.265,3.265,0,0,0,19.757,6.343Z" transform="translate(-0.547 1.05)"/><path class="a" d="M30.763,23.163A5.646,5.646,0,0,1,28.7,22.77L16.751,18.056a1.184,1.184,0,0,1,.87-2.2l11.944,4.714a3.264,3.264,0,0,0,4.458-3.035V7.484a3.259,3.259,0,0,0-4.458-3.033L17.621,9.163a1.184,1.184,0,0,1-.87-2.2L28.7,2.249a5.63,5.63,0,0,1,7.7,5.238V17.534a5.625,5.625,0,0,1-5.632,5.629Z" transform="translate(2.025 -1.853)"/><path class="a" d="M14.031,23.165A5.631,5.631,0,0,1,8.4,17.533V7.486a5.631,5.631,0,0,1,7.7-5.238L28.043,6.959a1.184,1.184,0,0,1-.87,2.2L15.231,4.453a3.262,3.262,0,0,0-4.46,3.033V17.533a3.263,3.263,0,0,0,4.46,3.035l11.942-4.714a1.184,1.184,0,0,1,.87,2.2L16.1,22.771A5.6,5.6,0,0,1,14.031,23.165Z" transform="translate(-8.399 -1.854)"/></g></g></g></svg>