<svg xmlns="http://www.w3.org/2000/svg" width="50.494" height="35.931" viewBox="0 0 50.494 35.931"><defs><style>.a{fill:#fff;}.b{fill:#e71b26;}.c{fill:#f36523;}.d{fill:#fa9f1b;}</style></defs><path class="a" d="M8.1,0H42.394a8.1,8.1,0,0,1,8.1,8.1V27.831a8.1,8.1,0,0,1-8.1,8.1H8.1a8.1,8.1,0,0,1-8.1-8.1V8.1A8.1,8.1,0,0,1,8.1,0Z" transform="translate(0)"/><path class="b" d="M74.048,64.34A10.106,10.106,0,0,1,77.891,56.4a10.127,10.127,0,1,0,0,15.876A10.109,10.109,0,0,1,74.048,64.34Z" transform="translate(-52.661 -46.27)"/><ellipse class="c" cx="3.843" cy="7.94" rx="3.843" ry="7.94" transform="translate(21.386 10.13)"/><path class="d" d="M115.16,54.22a10.075,10.075,0,0,0-6.28,2.187,10.113,10.113,0,0,1,0,15.876,10.123,10.123,0,1,0,6.28-18.063Z" transform="translate(-83.636 -46.273)"/></svg>