<svg xmlns="http://www.w3.org/2000/svg" width="50.494" height="35.931" viewBox="0 0 50.494 35.931"><defs><style>.a{fill:#00366d;}.b{fill:#e41b23;}.c{fill:#7778b9;}.d{fill:#00a1e5;}</style></defs><rect class="a" width="50.494" height="35.931" rx="8.1" transform="translate(0 0)"/><path class="b" d="M252.424,64.34a10.1,10.1,0,0,1,3.847-7.936,10.127,10.127,0,1,0,0,15.876A10.1,10.1,0,0,1,252.424,64.34Z" transform="translate(-231.041 -46.27)"/><ellipse class="c" cx="3.843" cy="7.94" rx="3.843" ry="7.94" transform="translate(21.383 10.13)"/><path class="d" d="M293.5,54.22a10.05,10.05,0,0,0-6.28,2.187,10.12,10.12,0,0,1,0,15.876A10.123,10.123,0,1,0,293.5,54.22Z" transform="translate(-261.99 -46.273)"/></svg>