<svg xmlns="http://www.w3.org/2000/svg" xmlns:xlink="http://www.w3.org/1999/xlink" width="50.498" height="35.931" viewBox="0 0 50.498 35.931"><defs><style>.a{fill:none;}.b{fill:#f2f2f2;}.c,.g{fill:#00529b;}.c,.d{fill-rule:evenodd;}.d,.f{fill:#f5ab00;}.e{clip-path:url(#a);}</style><clipPath id="a"><rect class="a" width="50.494" height="35.931" rx="8.1" transform="translate(0)"/></clipPath></defs><rect class="b" width="50.494" height="35.931" rx="8.1" transform="translate(0)"/><path class="c" d="M1123.82,64.223l1.91-11.793h3.05l-1.91,11.793Z" transform="translate(-1105.255 -40.342)"/><path class="c" d="M1183.319,66.059a7.6,7.6,0,0,0-2.738-.5c-3.011,0-5.133,1.6-5.143,3.9-.028,1.691,1.518,2.634,2.672,3.2s1.58.953,1.58,1.466c0,.794-.953,1.158-1.83,1.158a6.1,6.1,0,0,1-2.863-.627l-.4-.191-.426,2.648a9.237,9.237,0,0,0,3.4.627c3.2,0,5.285-1.58,5.309-4.027,0-1.341-.8-2.37-2.561-3.213-1.064-.541-1.733-.9-1.733-1.456s.555-1.015,1.757-1.015a5.2,5.2,0,0,1,2.273.451l.274.125.416-2.547Z" transform="translate(-1150.645 -53.683)"/><path class="c" d="M1203.367,73.774c.253-.693,1.22-3.3,1.22-3.3s.25-.693.4-1.13l.215,1.015s.579,2.824.693,3.414Zm3.767-7.624h-2.36a1.509,1.509,0,0,0-1.594.977l-4.529,10.82h3.2s.527-1.459.641-1.771h3.906c.087.412.347,1.771.347,1.771h2.821l-2.457-11.783Z" transform="translate(-1166.642 -54.069)"/><path class="c" d="M1138.321,66.17l-2.987,8.044-.326-1.632a9.027,9.027,0,0,0-4.218-4.942l2.734,10.314h3.23l4.793-11.783Z" transform="translate(-1122.299 -54.082)"/><path class="d" d="M1126.549,66.15h-4.907l-.052.239A10.2,10.2,0,0,1,1129,72.562l-1.067-5.431a1.267,1.267,0,0,0-1.386-.991Z" transform="translate(-1116.288 -54.062)"/><g class="e" transform="translate(0.003 0)"><rect class="f" width="80.586" height="12.164" transform="translate(-14.053 29.849)"/><rect class="g" width="80.586" height="12.164" transform="translate(-14.053 -6.082)"/></g></svg>