<svg xmlns="http://www.w3.org/2000/svg" width="50.539" height="35.931" viewBox="0 0 50.539 35.931"><defs><style>.a{fill:#016fd0;}.b{fill:#fff;}</style></defs><rect class="a" width="50.494" height="35.931" rx="8.1" transform="translate(0.01 0)"/><path class="b" d="M817.923,67.425c0-.61-.6-.665-.853-.665h-1.5V68h1.3C817.147,68,817.923,68.039,817.923,67.425Z" transform="translate(-792.666 -54.468)"/><path class="b" d="M817.621,53.34l-.8,2.038h1.625Z" transform="translate(-780.993 -40.937)"/><path class="b" d="M721.36,55.262h1.615l-.783-1.982Z" transform="translate(-718.615 -40.897)"/><path class="b" d="M815.957,98.042h-2.911V96.656h2.911c.274,0,.693-.107.693-.513s-.385-.464-.634-.464h-1.462a1.643,1.643,0,0,1-1.712-1.861c0-.873.693-1.792,2.2-1.792h3.019v-1.2H787.518l-.853,1.13-.846-1.13h-8.73v8.394h8.737l.8-1.151.773,1.151h5.351V97.248h.461a3.393,3.393,0,0,0,1.657-.243V99.22h3.583V97.862l1.074,1.359h16.579a2.314,2.314,0,0,0,1.955-.693V96.86A1.974,1.974,0,0,1,815.957,98.042Zm-32.695-4.658h-3.348v.97h3.251v1.227h-3.251v1.071h3.348v1.386h-4.876V92.026h4.876Zm6.668,4.658h-1.92l-1.359-1.993-1.424,1.993h-1.84l2.388-3.019-2.388-3h1.882l1.386,1.878,1.452-1.878h1.851L787.5,95.048Zm3.629-2.017h-1.944v2.017H790.09V92.026h3.23a1.934,1.934,0,0,1,2.121,1.982,1.878,1.878,0,0,1-1.882,2.017Zm6.4,2.017-1.792-2.2h-.544v2.2h-1.535V92.026h3.355a1.923,1.923,0,0,1,2.02,2.017c0,.995-.634,1.476-1.514,1.8l1.892,2.2Zm6.987,0h-4.907V92.026h4.89v1.386h-3.337v.943h3.247v1.279h-3.265v1.015h3.372Zm3.552,0h-2.915V96.656H810.5c.27,0,.693-.107.693-.513s-.381-.464-.631-.464H809.1a1.657,1.657,0,0,1-1.733-1.861c0-.873.693-1.792,2.2-1.792h3.008l-.62,1.386H809.39c-.128,0-.523.121-.523.478a.475.475,0,0,0,.457.464l1.813.021a1.615,1.615,0,0,1,1.6,1.677C812.734,97.356,811.947,98.042,810.5,98.042Z" transform="translate(-767.521 -70.196)"/><path class="b" d="M773.227,67.827V66.513l1.04,1.313h5.247v-.717a3.021,3.021,0,0,0,2.3.717h3.261l.558-1.237h.96l.548,1.237h5.143V66.35l.974,1.476h3.632V59.44h-3.739v1.58l-1.012-1.57H788.7v2.117l-.922-2.128h-5.545a3.986,3.986,0,0,0-2.734.825V59.44H761.118l-.655,1.58-.613-1.58H755.67v2.218l-.946-2.218h-3.4L749.48,63.6v4.228h2.457l.555-1.268,1.057.059.555,1.268,7.954-.055Zm18.489-7.195,2.37,3.746V60.632h1.542v6.013h-1.837l-2.464-3.812v3.812H789.8V60.632Zm-4.623,0,2.571,6.013h-1.656l-.572-1.255H784.75l-.544,1.255h-1.6l2.575-6.013Zm-5.032,0h1.612v1.456h-1.584a1.428,1.428,0,0,0-1.518,1.553c0,1.445,1.019,1.733,1.386,1.733h.627l-.617,1.282h0a2.66,2.66,0,0,1-2.852-2.96A2.774,2.774,0,0,1,782.06,60.632Zm-5.2,0h1.466v6.013h-1.462Zm-3.23,0c2.468,0,2.592,1.313,2.592,1.986a1.83,1.83,0,0,1-1.577,1.868l1.979,2.173H774.79l-1.854-2.121h-.541v2.121h-1.528l-.017-6.013Zm-8.449,0h4.8v1.362h-3.365v.974H769.9V64.2h-3.286v1.112h3.365v1.331h-4.8Zm-10.258,6.013L754.37,65.4H751.7l-.558,1.241H749.5l2.568-5.947h1.951l2.575,5.947Zm4.852,0-1.507-4.311v4.311H756.72v-5.93l2.384.017,1.386,3.784,1.313-3.885h2.364v6.013h-1.476l-.035-4.384-1.56,4.384Z" transform="translate(-749.48 -49.684)"/><path class="b" d="M838.023,98.136H836.29v1.258h1.785a.631.631,0,0,0,.6-.627.6.6,0,0,0-.655-.631Z" transform="translate(-806.205 -74.968)"/><path class="b" d="M820.571,98.139H818.9v1.438h1.671a.719.719,0,1,0,0-1.438Z" transform="translate(-794.842 -74.971)"/><path class="b" d="M885.1,95.9c-.132,0-.523.121-.523.478a.475.475,0,0,0,.444.478l1.809.021a1.58,1.58,0,0,1,1.466.991V94.65l-.631,1.255Z" transform="translate(-837.76 -72.692)"/></svg>