<svg xmlns="http://www.w3.org/2000/svg" width="50.494" height="35.931" viewBox="0 0 50.494 35.931"><defs><style>.a{fill:#e6e6e6;}.b{fill:#004a98;}.c{fill:#fff;}</style></defs><rect class="a" width="50.494" height="35.931" rx="8.1" transform="translate(0 0)"/><path class="b" d="M443.745,74.443c5.545.028,10.587-4.505,10.587-10.05A10.343,10.343,0,0,0,443.745,54.18h-4.772A9.982,9.982,0,0,0,428.76,64.393a10.176,10.176,0,0,0,10.213,10.05Z" transform="translate(-416.294 -46.247)"/><path class="c" d="M442.888,71.393V60.424a5.871,5.871,0,0,1,0,10.969m-7.971-5.486a5.892,5.892,0,0,1,3.771-5.483V71.39a5.892,5.892,0,0,1-3.771-5.483m5.871-9.267a9.271,9.271,0,1,0,9.253,9.267,9.271,9.271,0,0,0-9.253-9.267" transform="translate(-418.085 -47.855)"/></svg>