<svg xmlns="http://www.w3.org/2000/svg" width="126.391" height="181.933" viewBox="0 0 126.391 181.933"><defs><style>.a{fill:#ffc89f;}.b{fill:#464649;}.c{fill:#f7b081;}.d{fill:#f6243e;}.e{fill:#b81c30;}</style></defs><g transform="translate(-63.568 -39.036) rotate(16)"><path class="a" d="M177.309,34.423a39.178,39.178,0,0,0-39.134,39.134V85.579a2.491,2.491,0,0,0,1.439,2.258l36.643,17.073a2.49,2.49,0,0,0,2.1,0L215,87.836a2.491,2.491,0,0,0,1.439-2.258V73.557A39.178,39.178,0,0,0,177.309,34.423Z" transform="translate(-15.55 -22.991)"/><path class="b" d="M203.072,145.938a4.614,4.614,0,1,1,4.615-4.614A4.62,4.62,0,0,1,203.072,145.938Z" transform="translate(-55.81 -91.304)"/><path class="b" d="M290.372,145.938a4.614,4.614,0,1,1,4.615-4.614A4.619,4.619,0,0,1,290.372,145.938Z" transform="translate(-114.116 -91.304)"/><path class="c" d="M228.057,34.423a39.28,39.28,0,0,0-5.45.381,39.192,39.192,0,0,1,33.684,38.753V79.1L214.16,98.925,227,104.91a2.49,2.49,0,0,0,2.1,0l36.643-17.073a2.491,2.491,0,0,0,1.439-2.258V73.557A39.179,39.179,0,0,0,228.057,34.423Z" transform="translate(-66.298 -22.991)"/><path class="d" d="M205.169,179.794a7.439,7.439,0,0,0-7.172-.472l-36.237,16.884-36.238-16.884a7.473,7.473,0,0,0-10.629,6.774v33.482c0,.036,0,.073,0,.109v22.792a46.867,46.867,0,0,0,93.734,0V186.1A7.441,7.441,0,0,0,205.169,179.794Z" transform="translate(0 -119.294)"/><g transform="translate(155.848 59.325)"><path class="e" d="M287.526,179.794a7.439,7.439,0,0,0-7.172-.472l-3.324,1.549a7.432,7.432,0,0,1,2.132,5.225v56.383a46.937,46.937,0,0,1-40.956,46.5,46.888,46.888,0,0,0,52.777-46.5V186.1A7.44,7.44,0,0,0,287.526,179.794Z" transform="translate(-238.205 -178.619)"/></g><path class="e" d="M114.893,238.554V246.4l46.867-22.271-7.95-3.7Z" transform="translate(-0.001 -147.213)"/><path class="b" d="M211.52,16.658q-.108,0-.216-.009c-12.364-1.055-15.649-10.216-15.783-10.605a2.491,2.491,0,0,1,4.705-1.637c.095.259,1.818,4.731,7.782,6.573a16.317,16.317,0,0,1,1.473-9.569,2.491,2.491,0,1,1,4.489,2.159,11.172,11.172,0,0,0-.244,9.452,2.482,2.482,0,0,1-2.208,3.637Z" transform="translate(-53.759 0)"/></g></svg>