<svg xmlns="http://www.w3.org/2000/svg" width="29.302" height="29.302" viewBox="0 0 29.302 29.302"><defs><style>.a{fill:#fff;}</style></defs><path class="a" d="M151.808,128a5.5,5.5,0,0,1,5.494,5.494v18.314a5.5,5.5,0,0,1-5.494,5.494h-3.586V145.951h3.8l.572-4.426h-4.369V138.7a2.445,2.445,0,0,1,.448-1.6,2.225,2.225,0,0,1,1.745-.534l2.327-.019V132.6a25.573,25.573,0,0,0-3.4-.172,5.667,5.667,0,0,0-4.149,1.526,5.768,5.768,0,0,0-1.555,4.311v3.262h-3.815v4.426h3.815V157.3H133.494A5.5,5.5,0,0,1,128,151.808V133.494A5.5,5.5,0,0,1,133.494,128Z" transform="translate(-128 -128)"/></svg>