<svg xmlns="http://www.w3.org/2000/svg" width="26.202" height="26.202" viewBox="0 0 26.202 26.202"><defs><style>.a{fill:#50dc83;}</style></defs><path class="a" d="M23.73,18.309a5.421,5.421,0,0,1-5.421,5.421H7.893a5.421,5.421,0,0,1-5.421-5.421V7.892A5.421,5.421,0,0,1,7.893,2.471H18.309A5.421,5.421,0,0,1,23.73,7.892V18.309ZM26.2,7.892A7.892,7.892,0,0,0,18.309,0H7.893A7.892,7.892,0,0,0,0,7.892V18.309A7.893,7.893,0,0,0,7.893,26.2H18.309A7.893,7.893,0,0,0,26.2,18.309ZM13.145,17.414A4.145,4.145,0,1,1,17.29,13.27,4.15,4.15,0,0,1,13.145,17.414Zm0-10.615a6.47,6.47,0,1,0,6.471,6.47A6.478,6.478,0,0,0,13.145,6.8Zm6.849-1.976a1.541,1.541,0,1,0,1.541,1.541,1.541,1.541,0,0,0-1.541-1.541Z"/></svg>