<svg xmlns="http://www.w3.org/2000/svg" width="29.798" height="29.798" viewBox="0 0 29.798 29.798"><defs><style>.a{fill:#fff;}</style></defs><path class="a" d="M26.987,20.823a6.165,6.165,0,0,1-6.165,6.165H8.976a6.165,6.165,0,0,1-6.165-6.165V8.975A6.165,6.165,0,0,1,8.976,2.81H20.823a6.165,6.165,0,0,1,6.165,6.165ZM29.8,8.975A8.976,8.976,0,0,0,20.822,0H8.977A8.975,8.975,0,0,0,0,8.975V20.823A8.977,8.977,0,0,0,8.977,29.8H20.822A8.977,8.977,0,0,0,29.8,20.822ZM14.949,19.8a4.714,4.714,0,1,1,4.714-4.714A4.719,4.719,0,0,1,14.949,19.8Zm0-12.072a7.358,7.358,0,1,0,7.359,7.358,7.367,7.367,0,0,0-7.359-7.358Zm7.789-2.247A1.752,1.752,0,1,0,24.49,7.238a1.752,1.752,0,0,0-1.752-1.752Z"/></svg>