<svg xmlns="http://www.w3.org/2000/svg" width="201.282" height="88.432" viewBox="0 0 201.282 88.432"><defs><style>.a{fill:#fff;}</style></defs><g transform="translate(0 -0.239)"><path class="a" d="M8.661-28.615q0,2.943-3.278,2.943-3.326,0-3.326-2.943a2.719,2.719,0,0,1,1.029-2.177,3.429,3.429,0,0,1,2.3-.813,3.415,3.415,0,0,1,2.309.837A2.716,2.716,0,0,1,8.661-28.615Zm-.167,6.484q0,1.842-.227,5.563t-.227,5.587q0,1.747.072,5.228t.072,5.2q0,.5-.431.5H3.086q-.5,0-.5-.981,0-1.651.084-4.965t.084-4.989q0-1.866-.275-5.6t-.275-5.6q0-.407.5-.407a11.145,11.145,0,0,1,1.328.12,11.182,11.182,0,0,0,1.352.12,11.183,11.183,0,0,0,1.352-.12,11.183,11.183,0,0,1,1.352-.12Q8.494-22.586,8.494-22.131ZM34.31-.479q0,.526-.479.526-.79,0-2.357-.024T29.118,0q-.431,0-.431-.694,0-1.172.072-3.565t.072-3.589q0-.957-.024-2.859t-.024-2.859a6.976,6.976,0,0,0-.79-3.852q-.957-1.34-3.541-1.34a7.048,7.048,0,0,0-3.326,1.34q-2.249,1.412-2.249,2.512V-.55q0,.6-.455.6-.766,0-2.3-.024T13.829,0q-.5,0-.5-.55,0-1.89.06-5.67t.06-5.694a38.724,38.724,0,0,0-1.077-9.4,1.138,1.138,0,0,1-.072-.311q0-.239.311-.335.167-.024,2.74-.443t2.692-.419q.144,0,.191.383a15.367,15.367,0,0,0,.55,2.991q1.244-.981,3.278-2.44a9.34,9.34,0,0,1,4.857-1.531q4.5,0,6.149,2.608,1.22,1.914,1.22,6.2,0,.742-.036,2.273t-.036,2.3q0,1.6.048,4.785T34.31-.479ZM51.2-30.673q0,.287-.431.335-1.172.12-2.321.215a3.4,3.4,0,0,0-2.082.957Q45.2-27.9,45.2-22.729q.79,0,2.488.048t2.56.048q.574,0,.574.431,0,.67.048,2t.048,1.974q0,.455-.479.455-.837,0-2.536-.084t-2.512-.084v7.154q0,1.675.12,5.072t.12,5.072q0,.646-.479.646H40.77q-.622,0-.622-.742V-17.2q0-.646-1.459-.622a4.231,4.231,0,0,1-1.675-.12,2.511,2.511,0,0,1-.072-.885q0-.526-.048-1.567t-.048-1.567q0-.5,3.039-.67-.072-1.531-.072-2.488,0-4.235,1.507-6.2a8.735,8.735,0,0,1,3.924-2.775A13.071,13.071,0,0,1,50.053-35a.343.343,0,0,1,.335.263q.024.048.419,2.022T51.2-30.673Zm25.313,9.02a2.79,2.79,0,0,1-.072.431,57.469,57.469,0,0,0-.933,9.451q0,.239.6,10.743l.024.335Q76.156,0,75.5,0a18.761,18.761,0,0,0-1.986.156,18.74,18.74,0,0,1-1.974.156q-.455,0-.694-1.675T70.39-3.039a6.208,6.208,0,0,0-1.292.933A14.113,14.113,0,0,1,66.466-.359,8.3,8.3,0,0,1,62.686.6,9.921,9.921,0,0,1,54.862-3.11a12.344,12.344,0,0,1-3.015-8.254,12.841,12.841,0,0,1,3.039-8.781,10.62,10.62,0,0,1,8.374-3.613,9.081,9.081,0,0,1,6.388,2.536q.407.479,1.268,1.388a.207.207,0,0,0,.144.072q.144,0,.407-1.507t.67-1.507a14.855,14.855,0,0,1,2.417.359Q76.515-21.988,76.515-21.653Zm-6.1,10A7.652,7.652,0,0,0,68.667-16.7a5.8,5.8,0,0,0-4.713-2.273,6.028,6.028,0,0,0-4.785,2.249,7.555,7.555,0,0,0-1.842,5.072,7.433,7.433,0,0,0,1.842,5.024A6.054,6.054,0,0,0,63.954-4.4a5.865,5.865,0,0,0,4.689-2.273A7.547,7.547,0,0,0,70.414-11.652ZM101.493-.479q0,.526-.479.526-.79,0-2.357-.024T96.3,0q-.431,0-.431-.694,0-1.172.072-3.565t.072-3.589q0-.957-.024-2.859t-.024-2.859a6.976,6.976,0,0,0-.79-3.852q-.957-1.34-3.541-1.34a7.048,7.048,0,0,0-3.326,1.34q-2.249,1.412-2.249,2.512V-.55q0,.6-.455.6-.766,0-2.3-.024T81.013,0q-.5,0-.5-.55,0-1.89.06-5.67t.06-5.694a38.724,38.724,0,0,0-1.077-9.4,1.138,1.138,0,0,1-.072-.311q0-.239.311-.335.167-.024,2.74-.443t2.692-.419q.144,0,.191.383a15.367,15.367,0,0,0,.55,2.991q1.244-.981,3.278-2.44A9.34,9.34,0,0,1,94.1-23.423q4.5,0,6.149,2.608,1.22,1.914,1.22,6.2,0,.742-.036,2.273t-.036,2.3q0,1.6.048,4.785T101.493-.479ZM119.366-4.4q0,.526-.1,1.436-.12,1.125-.144,1.459a1.861,1.861,0,0,1-.072.526,1.006,1.006,0,0,1-.455.335,15.216,15.216,0,0,1-6.173.933q-5.6,0-5.6-5.072,0-2.034.1-6.113t.1-6.113a.941.941,0,0,0-.981-1.053q-.885,0-1.747-.024-.5-.12-.5-1.962a11.782,11.782,0,0,1,.1-1.459.8.8,0,0,1,.766-.694q.6,0,1.172-.024,1.1-.048,1.1-.981,0-.957-.06-2.919t-.06-2.943q0-1.747.67-1.747.215,0,4.5.742.55.072.55.526,0,1.053-.156,3.158t-.156,3.158q0,.694.646.694H118.6q.407,0,.407.287a7.936,7.936,0,0,1-.084.921,7.959,7.959,0,0,0-.084.945q0,.359.024,1.1t.024,1.1q0,.455-.67.455-.957,0-2.9-.132t-2.9-.132q-.191,0-.287,1.364-.12,1.7-.12,4.761V-8.3a7.465,7.465,0,0,0,.383,2.871,2.338,2.338,0,0,0,2.369,1.244,10.848,10.848,0,0,0,2.177-.323,10.805,10.805,0,0,1,2.129-.323Q119.366-4.833,119.366-4.4Zm9.642-24.213q0,2.943-3.278,2.943-3.326,0-3.326-2.943a2.719,2.719,0,0,1,1.029-2.177,3.429,3.429,0,0,1,2.3-.813,3.415,3.415,0,0,1,2.309.837A2.716,2.716,0,0,1,129.008-28.615Zm-.167,6.484q0,1.842-.227,5.563t-.227,5.587q0,1.747.072,5.228t.072,5.2q0,.5-.431.5h-4.666q-.5,0-.5-.981,0-1.651.084-4.965t.084-4.989q0-1.866-.275-5.6t-.275-5.6q0-.407.5-.407a11.145,11.145,0,0,1,1.328.12,11.182,11.182,0,0,0,1.352.12,11.183,11.183,0,0,0,1.352-.12,11.183,11.183,0,0,1,1.352-.12Q128.84-22.586,128.84-22.131Zm10.791-11.054-.024.311q-.526,8.9-.526,15.289,0,2.847.1,8.53t.1,8.506q0,.55-.383.55h-4.57q-.431,0-.431-.55,0-2.823.048-8.506t.048-8.53q0-2.584-.251-7.764t-.251-7.74q0-.479.5-.479.431,0,1.292.072t1.292.072q.455,0,1.34-.072t1.316-.072Q139.655-33.568,139.631-33.185Z" transform="translate(28.749 47.627)"/><path class="a" d="M38.808-.885q0,.933-.55.933-.359,0-1.089-.072T36.056-.1q-.407,0-1.22.048T33.616,0q-.5,0-.5-1.125,0-1.1.084-3.29t.084-3.29q0-6.053-.048-6.747a6.024,6.024,0,0,0-1-3.4,4.431,4.431,0,0,0-3.326-1,5.859,5.859,0,0,0-3.4,1.436q-1.962,1.507-2.034,2.967-.1,1.866-.1,6.819,0,1.172.1,3.517t.1,3.517q0,.646-.431.646T21.88-.024Q21.055-.1,20.624-.1q-.383,0-1.125.048T18.375,0Q17.9,0,17.9-.694q0-1.148.072-3.457t.072-3.457v-5.766a8.364,8.364,0,0,0-.646-3.852q-.909-1.627-3.469-1.627a7.227,7.227,0,0,0-3.589,1.268q-2.3,1.388-2.3,2.8V-7.8q0,1.2.024,3.565T8.087-.694q0,.694-.55.694H3.086q-.479,0-.479-.646,0-1.938.024-5.826T2.656-12.3a41.569,41.569,0,0,0-.933-8.733,2.348,2.348,0,0,1-.072-.5q0-.311.215-.359.885-.1,2.584-.359a23.037,23.037,0,0,1,2.369-.526L7.01-22.8q.287,0,.538,1.687t.443,1.687l1.2-1.053a14.182,14.182,0,0,1,2.823-1.938,8.779,8.779,0,0,1,4.067-1.053q5.5,0,7.01,4.5a12.188,12.188,0,0,1,3.685-3.158,9.3,9.3,0,0,1,4.642-1.34q4.426,0,6.125,2.584,1.22,1.914,1.22,6.053,0,.79-.048,2.44t-.048,2.44q0,1.507.072,4.534T38.808-.885ZM66.8-21.653a2.79,2.79,0,0,1-.072.431,57.469,57.469,0,0,0-.933,9.451q0,.239.6,10.743l.024.335Q66.442,0,65.784,0A18.761,18.761,0,0,0,63.8.156a18.74,18.74,0,0,1-1.974.156q-.455,0-.694-1.675t-.455-1.675a6.208,6.208,0,0,0-1.292.933A14.113,14.113,0,0,1,56.752-.359,8.3,8.3,0,0,1,52.972.6,9.921,9.921,0,0,1,45.148-3.11a12.344,12.344,0,0,1-3.015-8.254,12.841,12.841,0,0,1,3.039-8.781,10.62,10.62,0,0,1,8.374-3.613,9.081,9.081,0,0,1,6.388,2.536q.407.479,1.268,1.388a.207.207,0,0,0,.144.072q.144,0,.407-1.507t.67-1.507a14.855,14.855,0,0,1,2.417.359Q66.8-21.988,66.8-21.653Zm-6.1,10A7.652,7.652,0,0,0,58.953-16.7a5.8,5.8,0,0,0-4.713-2.273,6.028,6.028,0,0,0-4.785,2.249,7.555,7.555,0,0,0-1.842,5.072,7.433,7.433,0,0,0,1.842,5.024A6.054,6.054,0,0,0,54.24-4.4a5.865,5.865,0,0,0,4.689-2.273A7.547,7.547,0,0,0,60.7-11.652ZM91.779-22.3q0,2.871-.048,8.625t-.048,8.625q0,5.694-2.44,8.4-2.56,2.871-8.183,2.871A16.6,16.6,0,0,1,72.28,4.163q-.526-.335-.526-.574,0,.263.718-3.541.072-.407.335-.407a.64.64,0,0,1,.311.12,14.36,14.36,0,0,0,7.2,2.058A6.85,6.85,0,0,0,84.243.766,3.912,3.912,0,0,0,86.037-2.7q0-.5-.1-2.249a8.36,8.36,0,0,1-6.747,3.23A9.324,9.324,0,0,1,71.921-4.9a10.923,10.923,0,0,1-2.728-7.537,11.728,11.728,0,0,1,2.632-7.728,8.982,8.982,0,0,1,7.273-3.4,7.475,7.475,0,0,1,6.269,3.039q.383.5.55.5.191,0,.191-.431,0-.311-.048-.993t-.048-1.017q0-1.436.287-1.436.239,0,2.584.443t2.56.538Q91.779-22.8,91.779-22.3Zm-5.742,9.857a7.154,7.154,0,0,0-1.459-4.546,5.1,5.1,0,0,0-4.211-2.034,5.059,5.059,0,0,0-4.187,2.058,7.117,7.117,0,0,0-1.459,4.522,7.067,7.067,0,0,0,1.483,4.5,5.036,5.036,0,0,0,4.163,2.058A5.078,5.078,0,0,0,84.53-7.943,6.994,6.994,0,0,0,86.037-12.441Zm33.4-9.211a2.79,2.79,0,0,1-.072.431,57.469,57.469,0,0,0-.933,9.451q0,.239.6,10.743l.024.335q.024.694-.634.694a18.761,18.761,0,0,0-1.986.156,18.74,18.74,0,0,1-1.974.156q-.455,0-.694-1.675t-.455-1.675a6.208,6.208,0,0,0-1.292.933,14.113,14.113,0,0,1-2.632,1.747,8.3,8.3,0,0,1-3.78.957A9.921,9.921,0,0,1,97.785-3.11a12.344,12.344,0,0,1-3.015-8.254,12.841,12.841,0,0,1,3.039-8.781,10.62,10.62,0,0,1,8.374-3.613,9.081,9.081,0,0,1,6.388,2.536q.407.479,1.268,1.388a.207.207,0,0,0,.144.072q.144,0,.407-1.507t.67-1.507a14.855,14.855,0,0,1,2.417.359Q119.438-21.988,119.438-21.653Zm-6.1,10A7.652,7.652,0,0,0,111.59-16.7a5.8,5.8,0,0,0-4.713-2.273,6.028,6.028,0,0,0-4.785,2.249,7.555,7.555,0,0,0-1.842,5.072,7.433,7.433,0,0,0,1.842,5.024A6.054,6.054,0,0,0,106.876-4.4a5.865,5.865,0,0,0,4.689-2.273A7.547,7.547,0,0,0,113.336-11.652ZM141.09-4.546q0,.12-.359,1.7-.383,1.7-.431,2.105-.1.837-.431.837-.837,0-2.249-.1-1.6-.12-2.225-.144-1.6-.048-4.594-.048-2.321,0-5.144.191-3.541.239-3.039.239a.61.61,0,0,1-.646-.431,9.61,9.61,0,0,1-.335-2.68q0-.215.024-.61t.024-.586a1.25,1.25,0,0,1,.514-.8q.514-.467,5.108-5.419,2.321-2.417,6.58-7.441H123.337q-.383,0-.383-.5a10.718,10.718,0,0,1,.3-2.07,10.7,10.7,0,0,0,.3-2.046q0-.287.67-.287,1.34,0,4,.12t4,.12q6.556,0,7.393.1.6.072.6.5a14.018,14.018,0,0,1-.287,4.067q-.239.335-4.139,4.713-2.512,2.847-7.584,8.47,7.967-.215,12.346-.215Q141.09-4.761,141.09-4.546Zm9.092-24.069q0,2.943-3.278,2.943-3.326,0-3.326-2.943a2.719,2.719,0,0,1,1.029-2.177,3.429,3.429,0,0,1,2.3-.813,3.415,3.415,0,0,1,2.309.837A2.716,2.716,0,0,1,150.182-28.615Zm-.167,6.484q0,1.842-.227,5.563t-.227,5.587q0,1.747.072,5.228t.072,5.2q0,.5-.431.5h-4.666q-.5,0-.5-.981,0-1.651.084-4.965t.084-4.989q0-1.866-.275-5.6t-.275-5.6q0-.407.5-.407a11.145,11.145,0,0,1,1.328.12,11.182,11.182,0,0,0,1.352.12,11.183,11.183,0,0,0,1.352-.12,11.183,11.183,0,0,1,1.352-.12Q150.015-22.586,150.015-22.131ZM175.831-.479q0,.526-.479.526-.79,0-2.357-.024T170.639,0q-.431,0-.431-.694,0-1.172.072-3.565t.072-3.589q0-.957-.024-2.859t-.024-2.859a6.976,6.976,0,0,0-.79-3.852q-.957-1.34-3.541-1.34a7.048,7.048,0,0,0-3.326,1.34q-2.249,1.412-2.249,2.512V-.55q0,.6-.455.6-.766,0-2.3-.024T155.35,0q-.5,0-.5-.55,0-1.89.06-5.67t.06-5.694a38.724,38.724,0,0,0-1.077-9.4,1.138,1.138,0,0,1-.072-.311q0-.239.311-.335.167-.024,2.74-.443t2.692-.419q.144,0,.191.383a15.367,15.367,0,0,0,.55,2.991q1.244-.981,3.278-2.44a9.34,9.34,0,0,1,4.857-1.531q4.5,0,6.149,2.608,1.22,1.914,1.22,6.2,0,.742-.036,2.273t-.036,2.3q0,1.6.048,4.785T175.831-.479Zm24.811-12.37a2.308,2.308,0,0,1-1.531,2.369q-1.029.383-14.81,1.412a5.387,5.387,0,0,0,2.321,3.589,6.8,6.8,0,0,0,4.115,1.412,11.094,11.094,0,0,0,6.938-2.44l.766-.622a.441.441,0,0,1,.251.048q.06.048.9,1.663a14.336,14.336,0,0,1,.837,1.735q0,.144-.383.55A11.844,11.844,0,0,1,191.023.6a11.939,11.939,0,0,1-8.853-3.314,11.972,11.972,0,0,1-3.3-8.841,12.735,12.735,0,0,1,3.158-8.589,10.428,10.428,0,0,1,8.159-3.8,9.755,9.755,0,0,1,7.513,3.3A11.117,11.117,0,0,1,200.642-12.848Zm-5.694-1.459a4.784,4.784,0,0,0-1.567-3.517,4.928,4.928,0,0,0-3.529-1.531,5.3,5.3,0,0,0-3.912,1.771,5.582,5.582,0,0,0-1.711,3.972q0,.5.861.5a60.049,60.049,0,0,0,8.47-.718Q194.947-14.021,194.947-14.308Z" transform="translate(0.64 82.45)"/><ellipse class="a" cx="2.5" cy="3" rx="2.5" ry="3" transform="translate(19 5.239)"/><circle class="a" cx="2.5" cy="2.5" r="2.5" transform="translate(8 0.239)"/><circle class="a" cx="1.5" cy="1.5" r="1.5" transform="translate(0 7.239)"/></g></svg>