<svg xmlns="http://www.w3.org/2000/svg" width="197.173" height="86.732" viewBox="0 0 197.173 86.732"><defs><style>.a{fill:#f6243e;}.b{fill:#33c468;}</style></defs><path class="a" d="M8.484-28.031q0,2.883-3.211,2.883-3.258,0-3.258-2.883a2.664,2.664,0,0,1,1.008-2.133,3.359,3.359,0,0,1,2.25-.8,3.345,3.345,0,0,1,2.262.82A2.661,2.661,0,0,1,8.484-28.031ZM8.32-21.68q0,1.8-.223,5.449t-.223,5.473q0,1.711.07,5.121t.07,5.1q0,.492-.422.492H3.023q-.492,0-.492-.961,0-1.617.082-4.863T2.7-10.758q0-1.828-.27-5.484t-.27-5.484q0-.4.492-.4a10.918,10.918,0,0,1,1.3.117,10.953,10.953,0,0,0,1.324.117A10.954,10.954,0,0,0,6.6-22.008a10.954,10.954,0,0,1,1.324-.117Q8.32-22.125,8.32-21.68ZM33.609-.469q0,.516-.469.516-.773,0-2.309-.023T28.523,0Q28.1,0,28.1-.68q0-1.148.07-3.492t.07-3.516q0-.937-.023-2.8t-.023-2.8a6.834,6.834,0,0,0-.773-3.773q-.937-1.312-3.469-1.312A6.9,6.9,0,0,0,20.7-17.062q-2.2,1.383-2.2,2.461V-.539q0,.586-.445.586-.75,0-2.25-.023T13.547,0q-.492,0-.492-.539,0-1.852.059-5.555t.059-5.578a37.934,37.934,0,0,0-1.055-9.211,1.115,1.115,0,0,1-.07-.3q0-.234.3-.328.164-.023,2.684-.434t2.637-.41q.141,0,.188.375a15.053,15.053,0,0,0,.539,2.93q1.219-.961,3.211-2.391a9.149,9.149,0,0,1,4.758-1.5q4.406,0,6.023,2.555,1.2,1.875,1.2,6.07,0,.727-.035,2.227t-.035,2.25q0,1.57.047,4.688T33.609-.469ZM50.156-30.047q0,.281-.422.328-1.148.117-2.273.211a3.327,3.327,0,0,0-2.039.938q-1.148,1.242-1.148,6.3.773,0,2.438.047t2.508.047q.563,0,.563.422,0,.656.047,1.957t.047,1.934q0,.445-.469.445-.82,0-2.484-.082t-2.461-.082v7.008q0,1.641.117,4.969T44.7-.633Q44.7,0,44.227,0H39.938q-.609,0-.609-.727V-16.852q0-.633-1.43-.609a4.145,4.145,0,0,1-1.641-.117,2.46,2.46,0,0,1-.07-.867q0-.516-.047-1.535t-.047-1.535q0-.492,2.977-.656-.07-1.5-.07-2.437,0-4.148,1.477-6.07A8.557,8.557,0,0,1,44.32-33.4a12.8,12.8,0,0,1,4.711-.891.336.336,0,0,1,.328.258q.023.047.41,1.98T50.156-30.047Zm24.8,8.836a2.733,2.733,0,0,1-.07.422,56.3,56.3,0,0,0-.914,9.258q0,.234.586,10.523l.023.328Q74.6,0,73.957,0a18.378,18.378,0,0,0-1.945.152A18.357,18.357,0,0,1,70.078.3q-.445,0-.68-1.641t-.445-1.641a6.081,6.081,0,0,0-1.266.914A13.825,13.825,0,0,1,65.109-.352a8.134,8.134,0,0,1-3.7.938,9.719,9.719,0,0,1-7.664-3.633,12.092,12.092,0,0,1-2.953-8.086,12.579,12.579,0,0,1,2.977-8.6,10.4,10.4,0,0,1,8.2-3.539,8.9,8.9,0,0,1,6.258,2.484q.4.469,1.242,1.359a.2.2,0,0,0,.141.07q.141,0,.4-1.477t.656-1.477a14.552,14.552,0,0,1,2.367.352Q74.953-21.539,74.953-21.211Zm-5.977,9.8a7.5,7.5,0,0,0-1.711-4.945,5.682,5.682,0,0,0-4.617-2.227,5.9,5.9,0,0,0-4.687,2.2,7.4,7.4,0,0,0-1.8,4.969,7.281,7.281,0,0,0,1.8,4.922,5.93,5.93,0,0,0,4.688,2.18,5.745,5.745,0,0,0,4.594-2.227A7.393,7.393,0,0,0,68.977-11.414ZM99.422-.469q0,.516-.469.516-.773,0-2.309-.023T94.336,0q-.422,0-.422-.68,0-1.148.07-3.492t.07-3.516q0-.937-.023-2.8t-.023-2.8a6.834,6.834,0,0,0-.773-3.773q-.937-1.312-3.469-1.312a6.9,6.9,0,0,0-3.258,1.313Q84.3-15.68,84.3-14.6V-.539q0,.586-.445.586-.75,0-2.25-.023T79.359,0q-.492,0-.492-.539,0-1.852.059-5.555t.059-5.578a37.934,37.934,0,0,0-1.055-9.211,1.115,1.115,0,0,1-.07-.3q0-.234.3-.328.164-.023,2.684-.434t2.637-.41q.141,0,.188.375a15.053,15.053,0,0,0,.539,2.93q1.219-.961,3.211-2.391a9.149,9.149,0,0,1,4.758-1.5q4.406,0,6.023,2.555,1.2,1.875,1.2,6.07,0,.727-.035,2.227t-.035,2.25q0,1.57.047,4.688T99.422-.469ZM116.93-4.312q0,.516-.094,1.406-.117,1.1-.141,1.43a1.823,1.823,0,0,1-.07.516.986.986,0,0,1-.445.328,14.906,14.906,0,0,1-6.047.914q-5.484,0-5.484-4.969,0-1.992.094-5.988t.094-5.988a.922.922,0,0,0-.961-1.031q-.867,0-1.711-.023-.492-.117-.492-1.922a11.542,11.542,0,0,1,.094-1.43.782.782,0,0,1,.75-.68q.586,0,1.148-.023,1.078-.047,1.078-.961,0-.937-.059-2.859t-.059-2.883q0-1.711.656-1.711.211,0,4.406.727.539.07.539.516,0,1.031-.152,3.094t-.152,3.094q0,.68.633.68h5.625q.4,0,.4.281a7.773,7.773,0,0,1-.082.9,7.8,7.8,0,0,0-.082.926q0,.352.023,1.078t.023,1.078q0,.445-.656.445-.937,0-2.836-.129t-2.836-.129q-.187,0-.281,1.336-.117,1.664-.117,4.664v3.492a7.313,7.313,0,0,0,.375,2.813A2.29,2.29,0,0,0,112.43-4.1a10.626,10.626,0,0,0,2.133-.316,10.585,10.585,0,0,1,2.086-.316Q116.93-4.734,116.93-4.312Zm9.445-23.719q0,2.883-3.211,2.883-3.258,0-3.258-2.883a2.664,2.664,0,0,1,1.008-2.133,3.359,3.359,0,0,1,2.25-.8,3.345,3.345,0,0,1,2.262.82A2.661,2.661,0,0,1,126.375-28.031Zm-.164,6.352q0,1.8-.223,5.449t-.223,5.473q0,1.711.07,5.121t.07,5.1q0,.492-.422.492h-4.57q-.492,0-.492-.961,0-1.617.082-4.863t.082-4.887q0-1.828-.27-5.484t-.27-5.484q0-.4.492-.4a10.918,10.918,0,0,1,1.3.117,10.953,10.953,0,0,0,1.324.117,10.954,10.954,0,0,0,1.324-.117,10.954,10.954,0,0,1,1.324-.117Q126.211-22.125,126.211-21.68Zm10.57-10.828-.023.3q-.516,8.719-.516,14.977,0,2.789.094,8.355t.094,8.332q0,.539-.375.539h-4.477q-.422,0-.422-.539,0-2.766.047-8.332t.047-8.355q0-2.531-.246-7.605t-.246-7.582q0-.469.492-.469.422,0,1.266.07t1.266.07q.445,0,1.313-.07t1.289-.07Q136.8-32.883,136.781-32.508Z" transform="translate(28.142 46.55)"/><path class="b" d="M38.016-.867q0,.914-.539.914-.352,0-1.066-.07t-1.09-.07q-.4,0-1.2.047T32.93,0q-.492,0-.492-1.1,0-1.078.082-3.223T32.6-7.547q0-5.93-.047-6.609a5.9,5.9,0,0,0-.984-3.328,4.341,4.341,0,0,0-3.258-.984,5.74,5.74,0,0,0-3.328,1.406,4.235,4.235,0,0,0-1.992,2.906q-.094,1.828-.094,6.68,0,1.148.094,3.445t.094,3.445q0,.633-.422.633t-1.23-.07q-.809-.07-1.23-.07-.375,0-1.1.047T18,0q-.469,0-.469-.68,0-1.125.07-3.387t.07-3.387V-13.1a8.193,8.193,0,0,0-.633-3.773q-.891-1.594-3.4-1.594a7.079,7.079,0,0,0-3.516,1.242q-2.25,1.359-2.25,2.742v6.844q0,1.172.023,3.492T7.922-.68q0,.68-.539.68H3.023q-.469,0-.469-.633,0-1.9.023-5.707T2.6-12.047A40.721,40.721,0,0,0,1.688-20.6a2.3,2.3,0,0,1-.07-.492q0-.3.211-.352.867-.094,2.531-.352a22.567,22.567,0,0,1,2.32-.516l.188-.023q.281,0,.527,1.652t.434,1.652L9-20.062a13.892,13.892,0,0,1,2.766-1.9,8.6,8.6,0,0,1,3.984-1.031q5.391,0,6.867,4.406a11.939,11.939,0,0,1,3.609-3.094,9.113,9.113,0,0,1,4.547-1.312q4.336,0,6,2.531,1.2,1.875,1.2,5.93,0,.773-.047,2.391T37.875-9.75q0,1.477.07,4.441T38.016-.867ZM65.438-21.211a2.733,2.733,0,0,1-.07.422,56.3,56.3,0,0,0-.914,9.258q0,.234.586,10.523l.023.328q.023.68-.621.68A18.378,18.378,0,0,0,62.5.152,18.357,18.357,0,0,1,60.563.3q-.445,0-.68-1.641t-.445-1.641a6.081,6.081,0,0,0-1.266.914A13.825,13.825,0,0,1,55.594-.352a8.134,8.134,0,0,1-3.7.938,9.719,9.719,0,0,1-7.664-3.633,12.092,12.092,0,0,1-2.953-8.086,12.579,12.579,0,0,1,2.977-8.6,10.4,10.4,0,0,1,8.2-3.539,8.9,8.9,0,0,1,6.258,2.484q.4.469,1.242,1.359a.2.2,0,0,0,.141.07q.141,0,.4-1.477t.656-1.477a14.552,14.552,0,0,1,2.367.352Q65.438-21.539,65.438-21.211Zm-5.977,9.8a7.5,7.5,0,0,0-1.711-4.945,5.682,5.682,0,0,0-4.617-2.227,5.9,5.9,0,0,0-4.687,2.2,7.4,7.4,0,0,0-1.8,4.969,7.281,7.281,0,0,0,1.8,4.922,5.93,5.93,0,0,0,4.688,2.18,5.745,5.745,0,0,0,4.594-2.227A7.393,7.393,0,0,0,59.461-11.414Zm30.445-10.43q0,2.813-.047,8.449t-.047,8.449q0,5.578-2.391,8.227-2.508,2.813-8.016,2.813a16.263,16.263,0,0,1-8.6-2.016q-.516-.328-.516-.562,0,.258.7-3.469.07-.4.328-.4a.627.627,0,0,1,.3.117A14.067,14.067,0,0,0,78.68,1.781,6.711,6.711,0,0,0,82.523.75a3.833,3.833,0,0,0,1.758-3.4q0-.492-.094-2.2a8.189,8.189,0,0,1-6.609,3.164A9.134,9.134,0,0,1,70.453-4.8a10.7,10.7,0,0,1-2.672-7.383,11.489,11.489,0,0,1,2.578-7.57,8.8,8.8,0,0,1,7.125-3.328,7.323,7.323,0,0,1,6.141,2.977q.375.492.539.492.188,0,.188-.422,0-.3-.047-.973t-.047-1q0-1.406.281-1.406.234,0,2.531.434t2.508.527Q89.906-22.336,89.906-21.844Zm-5.625,9.656a7.008,7.008,0,0,0-1.43-4.453,5,5,0,0,0-4.125-1.992,4.956,4.956,0,0,0-4.1,2.016,6.972,6.972,0,0,0-1.43,4.43,6.923,6.923,0,0,0,1.453,4.406,4.933,4.933,0,0,0,4.078,2.016A4.974,4.974,0,0,0,82.8-7.781,6.851,6.851,0,0,0,84.281-12.187ZM117-21.211a2.733,2.733,0,0,1-.07.422,56.3,56.3,0,0,0-.914,9.258q0,.234.586,10.523l.023.328Q116.648,0,116,0a18.378,18.378,0,0,0-1.945.152A18.357,18.357,0,0,1,112.125.3q-.445,0-.68-1.641T111-2.977a6.081,6.081,0,0,0-1.266.914,13.825,13.825,0,0,1-2.578,1.711,8.134,8.134,0,0,1-3.7.938,9.719,9.719,0,0,1-7.664-3.633,12.092,12.092,0,0,1-2.953-8.086,12.579,12.579,0,0,1,2.977-8.6,10.4,10.4,0,0,1,8.2-3.539,8.9,8.9,0,0,1,6.258,2.484q.4.469,1.242,1.359a.2.2,0,0,0,.141.07q.141,0,.4-1.477t.656-1.477a14.552,14.552,0,0,1,2.367.352Q117-21.539,117-21.211Zm-5.977,9.8a7.5,7.5,0,0,0-1.711-4.945,5.682,5.682,0,0,0-4.617-2.227,5.9,5.9,0,0,0-4.687,2.2,7.4,7.4,0,0,0-1.8,4.969,7.281,7.281,0,0,0,1.8,4.922,5.93,5.93,0,0,0,4.688,2.18,5.745,5.745,0,0,0,4.594-2.227A7.393,7.393,0,0,0,111.023-11.414Zm27.188,6.961q0,.117-.352,1.664-.375,1.664-.422,2.063-.094.82-.422.82-.82,0-2.2-.094-1.57-.117-2.18-.141-1.57-.047-4.5-.047-2.273,0-5.039.188-3.469.234-2.977.234a.6.6,0,0,1-.633-.422,9.414,9.414,0,0,1-.328-2.625q0-.211.023-.6t.023-.574a1.225,1.225,0,0,1,.5-.785q.5-.457,5-5.309,2.273-2.367,6.445-7.289H120.82q-.375,0-.375-.492a10.5,10.5,0,0,1,.293-2.027,10.479,10.479,0,0,0,.293-2q0-.281.656-.281,1.313,0,3.914.117t3.914.117q6.422,0,7.242.094.586.07.586.492a13.731,13.731,0,0,1-.281,3.984q-.234.328-4.055,4.617-2.461,2.789-7.43,8.3,7.8-.211,12.094-.211Q138.211-4.664,138.211-4.453Zm8.906-23.578q0,2.883-3.211,2.883-3.258,0-3.258-2.883a2.664,2.664,0,0,1,1.008-2.133,3.359,3.359,0,0,1,2.25-.8,3.345,3.345,0,0,1,2.262.82A2.661,2.661,0,0,1,147.117-28.031Zm-.164,6.352q0,1.8-.223,5.449t-.223,5.473q0,1.711.07,5.121t.07,5.1q0,.492-.422.492h-4.57q-.492,0-.492-.961,0-1.617.082-4.863t.082-4.887q0-1.828-.27-5.484t-.27-5.484q0-.4.492-.4a10.918,10.918,0,0,1,1.3.117,10.953,10.953,0,0,0,1.324.117,10.954,10.954,0,0,0,1.324-.117,10.954,10.954,0,0,1,1.324-.117Q146.953-22.125,146.953-21.68ZM172.242-.469q0,.516-.469.516-.773,0-2.309-.023T167.156,0q-.422,0-.422-.68,0-1.148.07-3.492t.07-3.516q0-.937-.023-2.8t-.023-2.8a6.834,6.834,0,0,0-.773-3.773q-.937-1.312-3.469-1.312a6.9,6.9,0,0,0-3.258,1.313q-2.2,1.383-2.2,2.461V-.539q0,.586-.445.586-.75,0-2.25-.023T152.18,0q-.492,0-.492-.539,0-1.852.059-5.555t.059-5.578a37.934,37.934,0,0,0-1.055-9.211,1.115,1.115,0,0,1-.07-.3q0-.234.3-.328.164-.023,2.684-.434t2.637-.41q.141,0,.188.375a15.053,15.053,0,0,0,.539,2.93q1.219-.961,3.211-2.391a9.149,9.149,0,0,1,4.758-1.5q4.406,0,6.023,2.555,1.2,1.875,1.2,6.07,0,.727-.035,2.227t-.035,2.25q0,1.57.047,4.688T172.242-.469Zm24.3-12.117a2.261,2.261,0,0,1-1.5,2.32q-1.008.375-14.508,1.383a5.277,5.277,0,0,0,2.273,3.516,6.662,6.662,0,0,0,4.031,1.383,10.867,10.867,0,0,0,6.8-2.391l.75-.609a.432.432,0,0,1,.246.047q.059.047.879,1.629a14.044,14.044,0,0,1,.82,1.7q0,.141-.375.539A11.6,11.6,0,0,1,187.125.586a11.7,11.7,0,0,1-8.672-3.246,11.728,11.728,0,0,1-3.234-8.66,12.475,12.475,0,0,1,3.094-8.414,10.215,10.215,0,0,1,7.992-3.727,9.556,9.556,0,0,1,7.359,3.234A10.89,10.89,0,0,1,196.547-12.586Zm-5.578-1.43a4.687,4.687,0,0,0-1.535-3.445,4.828,4.828,0,0,0-3.457-1.5,5.192,5.192,0,0,0-3.832,1.734,5.468,5.468,0,0,0-1.676,3.891q0,.492.844.492a58.823,58.823,0,0,0,8.3-.7Q190.969-13.734,190.969-14.016Z" transform="translate(0.626 80.638)"/><ellipse class="a" cx="2.5" cy="3" rx="2.5" ry="3" transform="translate(19 5)"/><circle class="a" cx="2.5" cy="2.5" r="2.5" transform="translate(7)"/><ellipse class="a" cx="1" cy="1.5" rx="1" ry="1.5" transform="translate(0 7)"/></svg>