<svg xmlns="http://www.w3.org/2000/svg" xmlns:xlink="http://www.w3.org/1999/xlink" width="101" height="101" viewBox="0 0 101 101"><defs><style>.a{fill:#fff;}.b{fill:#d62b40;}.c{fill:#3ead6e;}.d{filter:url(#a);}</style><filter id="a" x="0" y="0" width="101" height="101" filterUnits="userSpaceOnUse"><feOffset dy="3" input="SourceAlpha"/><feGaussianBlur stdDeviation="3" result="b"/><feFlood flood-opacity="0.31"/><feComposite operator="in" in2="b"/><feComposite in="SourceGraphic"/></filter></defs><g transform="translate(-559 -3130)"><g class="d" transform="matrix(1, 0, 0, 1, 559, 3130)"><circle class="a" cx="41.5" cy="41.5" r="41.5" transform="translate(9 6)"/></g><g transform="translate(572.385 3158.754)"><g transform="translate(-0.299 -0.024)"><path class="b" d="M3.182-10.512q0,1.081-1.2,1.081-1.222,0-1.222-1.081a1,1,0,0,1,.378-.8,1.26,1.26,0,0,1,.844-.3,1.254,1.254,0,0,1,.848.308A1,1,0,0,1,3.182-10.512ZM3.12-8.13q0,.677-.083,2.043T2.953-4.034q0,.642.026,1.92T3.006-.2q0,.185-.158.185H1.134q-.185,0-.185-.36Q.949-.984.98-2.2t.031-1.833q0-.686-.1-2.057t-.1-2.057q0-.149.185-.149a4.094,4.094,0,0,1,.488.044,4.107,4.107,0,0,0,.5.044,4.108,4.108,0,0,0,.5-.044,4.108,4.108,0,0,1,.5-.044Q3.12-8.3,3.12-8.13ZM12.6-.176q0,.193-.176.193-.29,0-.866-.009T10.7,0q-.158,0-.158-.255,0-.431.026-1.31t.026-1.318q0-.352-.009-1.05t-.009-1.05a2.563,2.563,0,0,0-.29-1.415,1.5,1.5,0,0,0-1.3-.492A2.589,2.589,0,0,0,7.761-6.4q-.826.519-.826.923V-.2q0,.22-.167.22-.281,0-.844-.009T5.08,0Q4.9,0,4.9-.2q0-.694.022-2.083t.022-2.092a14.225,14.225,0,0,0-.4-3.454.418.418,0,0,1-.026-.114q0-.088.114-.123l1.006-.163q.945-.154.989-.154t.07.141a5.645,5.645,0,0,0,.2,1.1q.457-.36,1.2-.9A3.431,3.431,0,0,1,9.888-8.6a2.465,2.465,0,0,1,2.259.958,4.386,4.386,0,0,1,.448,2.276q0,.272-.013.835t-.013.844q0,.589.018,1.758T12.6-.176Zm6.205-11.092q0,.105-.158.123-.431.044-.853.079a1.248,1.248,0,0,0-.765.352A4.017,4.017,0,0,0,16.6-8.35q.29,0,.914.018t.94.018q.211,0,.211.158,0,.246.018.734T18.7-6.7q0,.167-.176.167-.308,0-.932-.031t-.923-.031v2.628q0,.615.044,1.863t.044,1.863q0,.237-.176.237H14.977q-.229,0-.229-.272V-6.319q0-.237-.536-.229a1.554,1.554,0,0,1-.615-.044.923.923,0,0,1-.026-.325q0-.193-.018-.576t-.018-.576q0-.185,1.116-.246-.026-.562-.026-.914a3.749,3.749,0,0,1,.554-2.276,3.209,3.209,0,0,1,1.441-1.02,4.8,4.8,0,0,1,1.767-.334.126.126,0,0,1,.123.1q.009.018.154.743T18.809-11.268Zm9.3,3.313a1.025,1.025,0,0,1-.026.158,21.111,21.111,0,0,0-.343,3.472q0,.088.22,3.946l.009.123Q27.976,0,27.734,0A6.892,6.892,0,0,0,27,.057a6.884,6.884,0,0,1-.725.057q-.167,0-.255-.615t-.167-.615a2.28,2.28,0,0,0-.475.343,5.184,5.184,0,0,1-.967.642A3.05,3.05,0,0,1,23.027.22a3.645,3.645,0,0,1-2.874-1.362,4.534,4.534,0,0,1-1.107-3.032A4.717,4.717,0,0,1,20.162-7.4a3.9,3.9,0,0,1,3.076-1.327,3.336,3.336,0,0,1,2.347.932q.149.176.466.51a.076.076,0,0,0,.053.026q.053,0,.149-.554t.246-.554a5.457,5.457,0,0,1,.888.132Q28.107-8.077,28.107-7.954ZM25.866-4.28a2.811,2.811,0,0,0-.642-1.854,2.131,2.131,0,0,0-1.731-.835,2.214,2.214,0,0,0-1.758.826,2.775,2.775,0,0,0-.677,1.863,2.73,2.73,0,0,0,.677,1.846,2.224,2.224,0,0,0,1.758.817,2.154,2.154,0,0,0,1.723-.835A2.772,2.772,0,0,0,25.866-4.28Zm11.417,4.1q0,.193-.176.193-.29,0-.866-.009T35.376,0q-.158,0-.158-.255,0-.431.026-1.31t.026-1.318q0-.352-.009-1.05t-.009-1.05a2.563,2.563,0,0,0-.29-1.415,1.5,1.5,0,0,0-1.3-.492A2.589,2.589,0,0,0,32.44-6.4q-.826.519-.826.923V-.2q0,.22-.167.22-.281,0-.844-.009T29.76,0q-.185,0-.185-.2,0-.694.022-2.083t.022-2.092a14.225,14.225,0,0,0-.4-3.454.418.418,0,0,1-.026-.114q0-.088.114-.123l1.006-.163q.945-.154.989-.154t.07.141a5.645,5.645,0,0,0,.2,1.1q.457-.36,1.2-.9A3.431,3.431,0,0,1,34.567-8.6a2.465,2.465,0,0,1,2.259.958,4.386,4.386,0,0,1,.448,2.276q0,.272-.013.835t-.013.844q0,.589.018,1.758T37.283-.176Zm6.565-1.441q0,.193-.035.527-.044.413-.053.536a.684.684,0,0,1-.026.193.37.37,0,0,1-.167.123A5.59,5.59,0,0,1,41.3.105q-2.057,0-2.057-1.863,0-.747.035-2.246t.035-2.246a.346.346,0,0,0-.36-.387q-.325,0-.642-.009-.185-.044-.185-.721a4.328,4.328,0,0,1,.035-.536.293.293,0,0,1,.281-.255q.22,0,.431-.009.4-.018.4-.36T39.256-9.6q-.022-.721-.022-1.081,0-.642.246-.642.079,0,1.652.272.2.026.2.193,0,.387-.057,1.16t-.057,1.16q0,.255.237.255h2.109q.149,0,.149.105a2.915,2.915,0,0,1-.031.338,2.923,2.923,0,0,0-.031.347q0,.132.009.4t.009.4q0,.167-.246.167-.352,0-1.063-.048T41.3-6.609q-.07,0-.105.5-.044.624-.044,1.749v1.31A2.742,2.742,0,0,0,41.291-2a.859.859,0,0,0,.87.457,3.985,3.985,0,0,0,.8-.119,3.969,3.969,0,0,1,.782-.119Q43.849-1.775,43.849-1.617Zm3.542-8.895q0,1.081-1.2,1.081-1.222,0-1.222-1.081a1,1,0,0,1,.378-.8,1.26,1.26,0,0,1,.844-.3,1.254,1.254,0,0,1,.848.308A1,1,0,0,1,47.391-10.512ZM47.329-8.13q0,.677-.083,2.043t-.083,2.052q0,.642.026,1.92T47.215-.2q0,.185-.158.185H45.343q-.185,0-.185-.36,0-.606.031-1.824t.031-1.833q0-.686-.1-2.057t-.1-2.057q0-.149.185-.149a4.094,4.094,0,0,1,.488.044,4.107,4.107,0,0,0,.5.044,4.108,4.108,0,0,0,.5-.044,4.108,4.108,0,0,1,.5-.044Q47.329-8.3,47.329-8.13Zm3.964-4.061-.009.114q-.193,3.27-.193,5.616,0,1.046.035,3.133T51.161-.2q0,.2-.141.2H49.342q-.158,0-.158-.2,0-1.037.018-3.125t.018-3.133q0-.949-.092-2.852t-.092-2.843q0-.176.185-.176.158,0,.475.026t.475.026q.167,0,.492-.026t.483-.026Q51.3-12.331,51.293-12.19Z" transform="translate(11.743 17.469)"/><path class="c" d="M14.256-.325q0,.343-.2.343-.132,0-.4-.026t-.409-.026q-.149,0-.448.018T12.349,0q-.185,0-.185-.413t.031-1.208q.031-.8.031-1.208,0-2.224-.018-2.479a2.213,2.213,0,0,0-.369-1.248,1.628,1.628,0,0,0-1.222-.369A2.152,2.152,0,0,0,9.369-6.4a1.588,1.588,0,0,0-.747,1.09q-.035.686-.035,2.5,0,.431.035,1.292T8.657-.22q0,.237-.158.237T8.038-.009q-.3-.026-.461-.026-.141,0-.413.018T6.75,0q-.176,0-.176-.255,0-.422.026-1.27t.026-1.27V-4.913A3.073,3.073,0,0,0,6.39-6.328a1.329,1.329,0,0,0-1.274-.6A2.655,2.655,0,0,0,3.8-6.46q-.844.51-.844,1.028v2.566q0,.439.009,1.31t.009,1.3q0,.255-.2.255H1.134Q.958,0,.958-.237q0-.712.009-2.14t.009-2.14A15.27,15.27,0,0,0,.633-7.726.862.862,0,0,1,.606-7.91q0-.114.079-.132.325-.035.949-.132a8.463,8.463,0,0,1,.87-.193l.07-.009q.105,0,.2.62t.163.62l.439-.387a5.21,5.21,0,0,1,1.037-.712,3.225,3.225,0,0,1,1.494-.387A2.412,2.412,0,0,1,8.481-6.97,4.477,4.477,0,0,1,9.835-8.13a3.417,3.417,0,0,1,1.705-.492,2.49,2.49,0,0,1,2.25.949,4.255,4.255,0,0,1,.448,2.224q0,.29-.018.9t-.018.9q0,.554.026,1.666T14.256-.325ZM24.539-7.954a1.025,1.025,0,0,1-.026.158,21.111,21.111,0,0,0-.343,3.472q0,.088.22,3.946l.009.123Q24.407,0,24.166,0a6.892,6.892,0,0,0-.729.057,6.884,6.884,0,0,1-.725.057q-.167,0-.255-.615t-.167-.615a2.28,2.28,0,0,0-.475.343,5.184,5.184,0,0,1-.967.642A3.05,3.05,0,0,1,19.459.22a3.645,3.645,0,0,1-2.874-1.362,4.534,4.534,0,0,1-1.107-3.032A4.717,4.717,0,0,1,16.594-7.4,3.9,3.9,0,0,1,19.67-8.728a3.336,3.336,0,0,1,2.347.932q.149.176.466.51a.076.076,0,0,0,.053.026q.053,0,.149-.554t.246-.554a5.457,5.457,0,0,1,.888.132Q24.539-8.077,24.539-7.954ZM22.3-4.28a2.811,2.811,0,0,0-.642-1.854,2.131,2.131,0,0,0-1.731-.835,2.214,2.214,0,0,0-1.758.826A2.775,2.775,0,0,0,17.49-4.28a2.73,2.73,0,0,0,.677,1.846,2.224,2.224,0,0,0,1.758.817,2.154,2.154,0,0,0,1.723-.835A2.772,2.772,0,0,0,22.3-4.28ZM33.715-8.191q0,1.055-.018,3.168T33.68-1.854a4.5,4.5,0,0,1-.9,3.085,3.838,3.838,0,0,1-3.006,1.055,6.1,6.1,0,0,1-3.226-.756q-.193-.123-.193-.211,0,.1.264-1.3.026-.149.123-.149a.235.235,0,0,1,.114.044A5.275,5.275,0,0,0,29.5.668,2.516,2.516,0,0,0,30.946.281a1.437,1.437,0,0,0,.659-1.274q0-.185-.035-.826A3.071,3.071,0,0,1,29.092-.633,3.425,3.425,0,0,1,26.42-1.8a4.012,4.012,0,0,1-1-2.769,4.308,4.308,0,0,1,.967-2.839,3.3,3.3,0,0,1,2.672-1.248,2.746,2.746,0,0,1,2.3,1.116q.141.185.2.185t.07-.158q0-.114-.018-.365T31.6-8.253q0-.527.105-.527.088,0,.949.163t.94.2Q33.715-8.376,33.715-8.191ZM31.605-4.57a2.628,2.628,0,0,0-.536-1.67,1.875,1.875,0,0,0-1.547-.747,1.859,1.859,0,0,0-1.538.756,2.614,2.614,0,0,0-.536,1.661,2.6,2.6,0,0,0,.545,1.652,1.85,1.85,0,0,0,1.529.756,1.865,1.865,0,0,0,1.529-.756A2.569,2.569,0,0,0,31.605-4.57Zm12.27-3.384a1.025,1.025,0,0,1-.026.158,21.111,21.111,0,0,0-.343,3.472q0,.088.22,3.946l.009.123Q43.743,0,43.5,0a6.892,6.892,0,0,0-.729.057,6.884,6.884,0,0,1-.725.057q-.167,0-.255-.615t-.167-.615a2.28,2.28,0,0,0-.475.343,5.184,5.184,0,0,1-.967.642A3.05,3.05,0,0,1,38.795.22a3.645,3.645,0,0,1-2.874-1.362,4.534,4.534,0,0,1-1.107-3.032A4.717,4.717,0,0,1,35.93-7.4a3.9,3.9,0,0,1,3.076-1.327,3.336,3.336,0,0,1,2.347.932q.149.176.466.51a.076.076,0,0,0,.053.026q.053,0,.149-.554t.246-.554a5.457,5.457,0,0,1,.888.132Q43.875-8.077,43.875-7.954ZM41.634-4.28a2.811,2.811,0,0,0-.642-1.854,2.131,2.131,0,0,0-1.731-.835,2.214,2.214,0,0,0-1.758.826,2.775,2.775,0,0,0-.677,1.863A2.73,2.73,0,0,0,37.5-2.435a2.224,2.224,0,0,0,1.758.817,2.154,2.154,0,0,0,1.723-.835A2.772,2.772,0,0,0,41.634-4.28Zm10.2,2.61q0,.044-.132.624-.141.624-.158.773-.035.308-.158.308-.308,0-.826-.035-.589-.044-.817-.053Q49.148-.07,48.05-.07q-.853,0-1.89.07-1.3.088-1.116.088a.224.224,0,0,1-.237-.158,3.53,3.53,0,0,1-.123-.984q0-.079.009-.224t.009-.215a.459.459,0,0,1,.189-.294q.189-.171,1.876-1.991.853-.888,2.417-2.733H45.308q-.141,0-.141-.185a3.937,3.937,0,0,1,.11-.76,3.929,3.929,0,0,0,.11-.751q0-.105.246-.105.492,0,1.468.044t1.468.044q2.408,0,2.716.035.22.026.22.185A5.149,5.149,0,0,1,51.4-6.513q-.088.123-1.521,1.731-.923,1.046-2.786,3.111,2.927-.079,4.535-.079Q51.829-1.749,51.829-1.67Zm3.34-8.842q0,1.081-1.2,1.081-1.222,0-1.222-1.081a1,1,0,0,1,.378-.8,1.26,1.26,0,0,1,.844-.3,1.254,1.254,0,0,1,.848.308A1,1,0,0,1,55.169-10.512ZM55.107-8.13q0,.677-.083,2.043T54.94-4.034q0,.642.026,1.92T54.993-.2q0,.185-.158.185H53.121q-.185,0-.185-.36,0-.606.031-1.824T53-4.034q0-.686-.1-2.057t-.1-2.057q0-.149.185-.149a4.094,4.094,0,0,1,.488.044,4.107,4.107,0,0,0,.5.044,4.108,4.108,0,0,0,.5-.044,4.108,4.108,0,0,1,.5-.044Q55.107-8.3,55.107-8.13ZM64.591-.176q0,.193-.176.193-.29,0-.866-.009T62.684,0q-.158,0-.158-.255,0-.431.026-1.31t.026-1.318q0-.352-.009-1.05t-.009-1.05a2.563,2.563,0,0,0-.29-1.415,1.5,1.5,0,0,0-1.3-.492,2.589,2.589,0,0,0-1.222.492q-.826.519-.826.923V-.2q0,.22-.167.22-.281,0-.844-.009T57.067,0q-.185,0-.185-.2,0-.694.022-2.083t.022-2.092a14.225,14.225,0,0,0-.4-3.454.418.418,0,0,1-.026-.114q0-.088.114-.123l1.006-.163q.945-.154.989-.154t.07.141a5.645,5.645,0,0,0,.2,1.1q.457-.36,1.2-.9A3.431,3.431,0,0,1,61.875-8.6a2.465,2.465,0,0,1,2.259.958,4.386,4.386,0,0,1,.448,2.276q0,.272-.013.835t-.013.844q0,.589.018,1.758T64.591-.176ZM73.705-4.72a.848.848,0,0,1-.562.87q-.378.141-5.44.519a1.979,1.979,0,0,0,.853,1.318,2.5,2.5,0,0,0,1.512.519,4.075,4.075,0,0,0,2.549-.9l.281-.229a.162.162,0,0,1,.092.018q.022.018.33.611a5.267,5.267,0,0,1,.308.637q0,.053-.141.2A4.351,4.351,0,0,1,70.172.22,4.386,4.386,0,0,1,66.92-1a4.4,4.4,0,0,1-1.213-3.248A4.678,4.678,0,0,1,66.867-7.4a3.831,3.831,0,0,1,3-1.4,3.583,3.583,0,0,1,2.76,1.213A4.084,4.084,0,0,1,73.705-4.72Zm-2.092-.536a1.758,1.758,0,0,0-.576-1.292,1.81,1.81,0,0,0-1.3-.562,1.947,1.947,0,0,0-1.437.65A2.05,2.05,0,0,0,67.676-5q0,.185.316.185A22.059,22.059,0,0,0,71.1-5.08Q71.613-5.15,71.613-5.256Z" transform="translate(0.526 31.365)"/><circle class="b" cx="1" cy="1" r="1" transform="translate(7.913 2.269)"/><circle class="b" cx="1" cy="1" r="1" transform="translate(3.913 0.269)"/><ellipse class="b" cx="0.5" cy="1" rx="0.5" ry="1" transform="translate(-0.087 2.269)"/></g></g></g></svg>