<svg xmlns="http://www.w3.org/2000/svg" width="18.845" height="18.849" viewBox="0 0 18.845 18.849"><defs><style>.a{fill:none;stroke:#50dc83;stroke-width:2px;}</style></defs><g transform="translate(0.999 1.094)"><path class="a" d="M14.1,56.618a1.3,1.3,0,0,0-1.963,0c-.459.455-.918.91-1.369,1.373a.27.27,0,0,1-.378.069c-.3-.162-.613-.293-.9-.471a14.238,14.238,0,0,1-3.432-3.124A8.132,8.132,0,0,1,4.825,52.5a.282.282,0,0,1,.069-.363c.459-.444.906-.9,1.358-1.354a1.3,1.3,0,0,0,0-2.009c-.359-.363-.717-.717-1.076-1.08s-.737-.744-1.111-1.111a1.307,1.307,0,0,0-1.963,0c-.463.455-.906.922-1.377,1.369a2.235,2.235,0,0,0-.7,1.508,6.389,6.389,0,0,0,.494,2.75,16.71,16.71,0,0,0,2.966,4.94,18.353,18.353,0,0,0,6.078,4.755,8.791,8.791,0,0,0,3.367.98,2.467,2.467,0,0,0,2.117-.806c.393-.44.837-.841,1.253-1.261a1.312,1.312,0,0,0,.008-2Q15.2,57.716,14.1,56.618Z" transform="translate(-0.006 -46.137)"/></g></svg>