<svg xmlns="http://www.w3.org/2000/svg" width="18.161" height="18.247" viewBox="0 0 18.161 18.247"><defs><style>.a{fill:#50dc83;}</style></defs><path class="a" d="M.057,18.247,1.34,13.562A9.041,9.041,0,1,1,4.851,16.99L.057,18.247Zm5.016-2.894a7.5,7.5,0,1,0-2.086-2.028L2.228,16.1l2.845-.746ZM13.73,11.2c-.056-.094-.207-.151-.433-.264s-1.337-.66-1.544-.735-.357-.113-.509.113-.584.735-.715.886-.264.17-.49.056a6.166,6.166,0,0,1-1.817-1.121A6.8,6.8,0,0,1,6.965,8.568c-.132-.226-.014-.348.1-.461s.226-.264.339-.4a1.482,1.482,0,0,0,.228-.376.415.415,0,0,0-.019-.4c-.057-.113-.509-1.225-.7-1.677s-.37-.381-.509-.388l-.433-.008a.828.828,0,0,0-.6.283,2.535,2.535,0,0,0-.791,1.885A4.4,4.4,0,0,0,5.5,9.371a10.073,10.073,0,0,0,3.859,3.411,13.073,13.073,0,0,0,1.288.476,3.105,3.105,0,0,0,1.423.09A2.327,2.327,0,0,0,13.6,12.274,1.882,1.882,0,0,0,13.73,11.2Z" transform="translate(-0.057)"/></svg>